HIERARCHY
ROOT SpineBase
{
  OFFSET 0.000000 0.000000 0.000000
  CHANNELS 6 Xposition Yposition Zposition Zrotation Xrotation Yrotation
  JOINT SpineMid
  {
    OFFSET 0.000000 31.643409 0.000000
    CHANNELS 3 Zrotation Xrotation Yrotation
    JOINT SpineShoulder
    {
      OFFSET 0.021635 23.520911 -0.638888
      CHANNELS 3 Zrotation Xrotation Yrotation
      JOINT Neck
      {
        OFFSET 0.024385 7.780499 -0.512279
        CHANNELS 3 Zrotation Xrotation Yrotation
        JOINT Head
        {
          OFFSET -7.395762 13.122612 1.061043
          CHANNELS 3 Zrotation Xrotation Yrotation
          End Site
          {
            OFFSET 0 0 0
          }
        }
      }
      JOINT ShoulderLeft
      {
        OFFSET -14.928929 -5.264138 8.959633
        CHANNELS 3 Zrotation Xrotation Yrotation
        JOINT ElbowLeft
        {
          OFFSET -3.339802 -27.792380 1.301910
          CHANNELS 3 Zrotation Xrotation Yrotation
          JOINT WristLeft
          {
            OFFSET -1.980166 -21.292062 -10.672332
            CHANNELS 3 Zrotation Xrotation Yrotation
            JOINT HandLeft
            {
              OFFSET -0.196798 -6.737758 -2.686727
              CHANNELS 3 Zrotation Xrotation Yrotation
              JOINT HandTipLeft
              {
                OFFSET -0.315124 -7.476412 -2.425187
                CHANNELS 3 Zrotation Xrotation Yrotation
                End Site
                {
                  OFFSET 0 0 0
                }
              }
              JOINT ThumbLeft
              {
                OFFSET -3.341733 -0.285840 -3.097161
                CHANNELS 3 Zrotation Xrotation Yrotation
                End Site
                {
                  OFFSET 0 0 0
                }
              }
            }
          }
        }
      }
      JOINT ShoulderRight
      {
        OFFSET 12.296711 -3.388311 -9.356957
        CHANNELS 3 Zrotation Xrotation Yrotation
        JOINT ElbowRight
        {
          OFFSET 7.364979 -26.056509 -6.663356
          CHANNELS 3 Zrotation Xrotation Yrotation
          JOINT WristRight
          {
            OFFSET -2.183399 -20.000078 -8.746515
            CHANNELS 3 Zrotation Xrotation Yrotation
            JOINT HandRight
            {
              OFFSET -3.456454 -6.488445 -1.950241
              CHANNELS 3 Zrotation Xrotation Yrotation
              JOINT HandTipRight
              {
                OFFSET -2.543732 -7.454343 -1.649917
                CHANNELS 3 Zrotation Xrotation Yrotation
                End Site
                {
                  OFFSET 0 0 0
                }
              }
              JOINT ThumbRight
              {
                OFFSET 2.212090 -0.784927 -2.037347
                CHANNELS 3 Zrotation Xrotation Yrotation
                End Site
                {
                  OFFSET 0 0 0
                }
              }
            }
          }
        }
      }
    }
  }
  JOINT HipLeft
  {
    OFFSET -6.400836 0.037848 0.318093
    CHANNELS 3 Zrotation Xrotation Yrotation
    JOINT KneeLeft
    {
      OFFSET 5.052554 -37.791334 3.144724
      CHANNELS 3 Zrotation Xrotation Yrotation
      JOINT AnkleLeft
      {
        OFFSET 5.327672 -37.890766 9.785217
        CHANNELS 3 Zrotation Xrotation Yrotation
        JOINT FootLeft
        {
          OFFSET -1.905602 -8.273771 -5.019401
          CHANNELS 3 Zrotation Xrotation Yrotation
          End Site
          {
            OFFSET 0 0 0
          }
        }
      }
    }
  }
  JOINT HipRight
  {
    OFFSET 6.927625 1.736570 -7.303380
    CHANNELS 3 Zrotation Xrotation Yrotation
    JOINT KneeRight
    {
      OFFSET 12.725895 -34.732536 -3.797796
      CHANNELS 3 Zrotation Xrotation Yrotation
      JOINT AnkleRight
      {
        OFFSET 12.117864 -37.132874 6.638088
        CHANNELS 3 Zrotation Xrotation Yrotation
        JOINT FootRight
        {
          OFFSET -5.237433 -4.155377 -12.154873
          CHANNELS 3 Zrotation Xrotation Yrotation
          End Site
          {
            OFFSET 0 0 0
          }
        }
      }
    }
  }
}
MOTION
Frames: 14
Frame Time: 0.033333
-27.079902 85.059477 329.237500 -0.000000 0.000000 29.761761 0.000000 0.000000 -29.761761 -0.000000 0.000000 0.000000 -0.000000 0.000000 0.000000 0.000000 0.000000 0.000000 -0.000000 0.000000 0.000000 -0.000000 0.000000 0.000000 -0.000000 0.000000 0.000000 -0.000000 0.000000 0.000000 0.000000 0.000000 0.000000 0.000000 0.000000 0.000000 -0.000000 0.000000 0.000000 -0.000000 0.000000 0.000000 -0.000000 0.000000 0.000000 -0.000000 0.000000 0.000000 0.000000 0.000000 0.000000 0.000000 0.000000 0.000000 0.000000 0.000000 -29.761761 -0.000000 0.000000 0.000000 -0.000000 0.000000 0.000000 0.000000 0.000000 0.000000 0.000000 0.000000 -29.761761 -0.000000 0.000000 0.000000 -0.000000 0.000000 0.000000 0.000000 0.000000 0.000000
-27.763021 84.842651 329.612591 0.465576 -0.035974 29.124555 -0.389205 0.258023 -29.123532 -0.000000 0.000000 0.000000 -0.510461 0.676198 0.426253 0.000000 0.000000 0.000000 1.267703 -1.323233 0.233230 1.524754 -1.203771 -1.390416 -0.806057 -7.439111 0.880936 3.601529 6.849982 -1.843660 0.000000 0.000000 0.000000 0.000000 0.000000 0.000000 0.796141 -2.332581 -0.849533 4.056459 -3.511761 -0.562172 4.772624 -2.909217 3.552885 -1.451139 2.325856 -1.561326 0.000000 0.000000 0.000000 0.000000 0.000000 0.000000 -1.153094 -0.408305 -29.280564 1.716005 1.797189 0.593916 -2.846711 1.943984 -0.208243 0.000000 0.000000 0.000000 -1.109725 -0.500342 -29.468434 1.522035 2.211438 0.920324 -1.286882 -1.175685 -0.628092 0.000000 0.000000 0.000000
-28.393205 84.634678 329.974549 0.956329 -0.084380 28.379940 0.110218 -0.361799 -28.343264 0.068712 -0.152026 0.054663 -2.232036 1.687862 0.682146 0.000000 0.000000 0.000000 1.036687 -2.215332 0.390202 2.772885 -2.549417 -2.530704 -1.352678 -12.801718 1.840626 6.392358 11.959130 -4.145252 0.000000 0.000000 0.000000 0.000000 0.000000 0.000000 0.364437 -3.931840 -1.720372 7.422137 -6.380135 -0.917362 10.853317 -5.865003 6.885505 -4.533472 5.898874 -3.119622 0.000000 0.000000 0.000000 0.000000 0.000000 0.000000 -2.198005 -0.682162 -28.662849 3.334142 3.332765 1.076218 -5.191612 3.499302 -0.527778 0.000000 0.000000 0.000000 -2.064109 -0.573296 -28.888729 2.957969 3.722252 1.514288 -2.713652 -1.047091 -1.595668 0.000000 0.000000 0.000000
-28.970455 84.435557 330.323373 1.473023 -0.145256 27.529850 0.154858 -0.479828 -27.473016 0.087353 -0.200798 0.081310 -3.203695 2.229592 0.883842 0.000000 0.000000 0.000000 1.262872 -3.476873 0.612838 3.716551 -3.988091 -3.400593 -1.731033 -16.175296 2.707592 8.534639 15.377044 -6.350009 0.000000 0.000000 0.000000 0.000000 0.000000 0.000000 0.683117 -5.613402 -2.477914 9.971772 -8.430870 -1.100095 16.355855 -7.764431 9.453167 -7.569959 9.123559 -4.226741 0.000000 0.000000 0.000000 0.000000 0.000000 0.000000 -3.151372 -0.836144 -27.910583 4.841116 4.600673 1.462552 -7.031373 4.699504 -0.954962 0.000000 0.000000 0.000000 -2.881334 -0.226698 -28.021103 4.319062 4.510172 1.823553 -3.540712 -1.667891 -2.515778 0.000000 0.000000 0.000000
-29.494772 84.245288 330.659063 2.016491 -0.218675 26.578477 0.191274 -0.556657 -26.500480 0.095843 -0.231739 0.107239 -4.080613 2.575131 0.988161 0.000000 0.000000 0.000000 1.282074 -4.833524 0.847726 4.343327 -5.477114 -3.989256 -2.006126 -17.830047 3.335902 10.085994 17.348159 -8.135507 0.000000 0.000000 0.000000 0.000000 0.000000 0.000000 1.105151 -7.116884 -3.172176 11.670385 -9.620980 -1.159790 19.996477 -8.315719 10.877599 -9.475999 11.016973 -4.867378 0.000000 0.000000 0.000000 0.000000 0.000000 0.000000 -4.027970 -0.880166 -27.028266 6.222434 5.594052 1.767580 -8.366026 5.572686 -1.480654 0.000000 0.000000 0.000000 -3.586748 0.538712 -26.867882 5.607481 4.555979 1.882869 -4.010531 -2.353011 -3.501413 0.000000 0.000000 0.000000
-29.966155 84.063872 330.981620 2.587640 -0.304747 25.532367 0.217925 -0.592870 -25.432337 0.094388 -0.244995 0.132256 -4.864320 2.726789 0.992481 0.000000 0.000000 0.000000 1.087443 -6.279516 1.088034 4.652437 -6.981616 -4.292232 -2.211021 -18.040162 3.627577 11.073550 18.108378 -9.336981 0.000000 0.000000 0.000000 0.000000 0.000000 0.000000 1.639953 -8.450603 -3.806872 12.533359 -9.981154 -1.133543 21.454995 -7.737666 11.155333 -9.918226 11.398640 -5.193045 0.000000 0.000000 0.000000 0.000000 0.000000 0.000000 -4.841178 -0.819861 -26.022783 7.464258 6.306521 2.005049 -9.196389 6.137480 -2.094090 0.000000 0.000000 0.000000 -4.212707 1.728670 -25.434177 6.818222 3.842096 1.720184 -4.112545 -3.123139 -4.558278 0.000000 0.000000 0.000000
-30.312735 83.891329 331.356253 3.315166 -0.497595 24.264222 0.228720 -0.601654 -24.134128 0.083526 -0.246311 0.161771 -5.740066 2.875846 0.945351 0.000000 0.000000 0.000000 0.529376 -8.212499 1.393503 3.797738 -7.769751 -3.968139 -3.156664 -16.191349 3.498287 11.978619 18.342066 -10.007561 0.000000 0.000000 0.000000 0.000000 0.000000 0.000000 2.803739 -9.889741 -4.603487 11.845266 -8.588458 -0.925604 18.939088 -4.809521 9.312457 -7.725123 8.609718 -4.500765 0.000000 0.000000 0.000000 0.000000 0.000000 0.000000 -5.885427 -0.395976 -24.762224 8.914377 6.765750 2.226063 -9.572740 6.359149 -2.876204 0.000000 0.000000 0.000000 -4.977450 3.787122 -23.454929 8.262668 2.075876 1.287849 -3.365618 -5.079701 -6.294104 0.000000 0.000000 0.000000
-30.574706 83.715002 331.647562 4.101888 -0.653181 23.005233 0.272423 -0.537619 -22.844349 0.057100 -0.209348 0.191083 -6.691636 2.577882 0.719430 0.000000 0.000000 0.000000 -0.262699 -10.177032 1.667727 3.242996 -9.454691 -3.544375 -4.098247 -13.486474 3.418035 13.679354 16.689979 -11.104935 0.000000 0.000000 0.000000 0.000000 0.000000 0.000000 3.699576 -11.124624 -5.225803 10.882017 -7.141378 -0.702284 15.314167 -1.454684 7.352964 -4.792823 5.568854 -3.623409 0.000000 0.000000 0.000000 0.000000 0.000000 0.000000 -6.910921 0.012312 -23.483674 10.065406 6.954181 2.383126 -9.175727 6.125245 -3.789646 0.000000 0.000000 0.000000 -5.931879 6.219264 -21.295318 9.581917 -0.440985 0.670625 -3.647424 -3.975235 -6.969931 0.000000 0.000000 0.000000
-30.904566 83.554354 331.923729 4.757001 -0.719684 21.553256 0.236917 -0.449939 -21.370370 0.007350 -0.168649 0.209752 -7.053175 2.092844 0.399056 0.000000 0.000000 0.000000 -1.164366 -11.711571 1.827776 3.171726 -11.280589 -3.157386 -3.431565 -11.119869 2.590083 12.195378 13.708916 -9.770288 0.000000 0.000000 0.000000 0.000000 0.000000 0.000000 4.588201 -11.920948 -5.640088 9.316966 -5.412308 -0.387415 11.879900 0.786722 6.185671 -2.485446 3.621551 -2.939274 0.000000 0.000000 0.000000 0.000000 0.000000 0.000000 -7.603827 0.267955 -21.991816 10.753877 6.757686 2.473736 -8.337622 5.730615 -4.645662 0.000000 0.000000 0.000000 -6.552601 8.706871 -18.855350 10.169475 -3.626786 -0.121201 -2.652498 -4.697053 -7.946227 0.000000 0.000000 0.000000
-31.232085 83.446484 332.104699 5.226716 -0.749353 20.289127 0.145538 -0.317915 -20.095155 -0.071592 -0.104197 0.215086 -6.989220 1.310822 -0.046629 0.000000 0.000000 0.000000 -2.033525 -12.831354 1.880506 3.792898 -12.904664 -3.059534 -3.552360 -8.252606 2.308672 10.640279 8.651909 -7.931099 0.000000 0.000000 0.000000 0.000000 0.000000 0.000000 5.360224 -12.254515 -5.834446 7.414682 -4.042224 0.123064 9.076997 2.683911 4.943116 -0.536058 2.962241 -2.808715 0.000000 0.000000 0.000000 0.000000 0.000000 0.000000 -7.785113 0.510673 -20.653996 10.812223 6.062947 2.484351 -7.112137 5.205010 -5.330806 0.000000 0.000000 0.000000 -7.016393 10.965932 -16.664677 10.339674 -6.887779 -0.981805 -0.751829 -6.951338 -9.260861 0.000000 0.000000 0.000000
-31.524434 83.397301 332.095894 5.596473 -0.588527 19.650208 0.202545 -0.312034 -19.450463 -0.029269 -0.064455 0.231582 -7.405391 0.369454 -0.515712 0.000000 0.000000 0.000000 -3.024115 -13.146561 1.789679 3.714801 -14.064065 -2.586491 -4.180439 -4.903371 2.246537 10.200038 3.484162 -6.766625 0.000000 0.000000 0.000000 0.000000 0.000000 0.000000 5.304767 -12.609555 -5.913952 6.676942 -3.082576 0.200720 5.583576 5.706138 3.449751 2.286835 1.576196 -2.253883 0.000000 0.000000 0.000000 0.000000 0.000000 0.000000 -8.094554 0.471839 -20.001406 11.057388 5.635151 2.517537 -6.835583 5.253825 -5.652546 0.000000 0.000000 0.000000 -7.629646 12.284607 -15.422728 10.548473 -9.027755 -1.569283 1.524629 -10.845944 -10.858476 0.000000 0.000000 0.000000
-31.759692 83.362950 331.958458 5.814089 -0.358515 19.566560 0.222276 -0.303384 -19.370958 0.005221 -0.041303 0.241004 -7.221731 -0.322915 -0.837284 0.000000 0.000000 0.000000 -3.795663 -13.073330 1.645902 3.297315 -14.867840 -1.948174 -6.382938 -2.586956 3.445689 12.123721 -0.239730 -7.666467 0.000000 0.000000 0.000000 0.000000 0.000000 0.000000 4.986278 -12.623969 -5.832674 5.483288 -1.799747 0.398247 4.607979 5.040747 3.627509 2.502568 2.323280 -2.677125 0.000000 0.000000 0.000000 0.000000 0.000000 0.000000 -8.371271 0.375844 -19.929559 11.326890 5.267569 2.546371 -6.758339 5.125910 -5.772696 0.000000 0.000000 0.000000 -8.083991 12.731311 -15.088434 10.590382 -10.061736 -1.910613 4.096507 -16.113735 -12.417593 0.000000 0.000000 0.000000
-31.859324 83.368052 331.672253 5.984704 -0.055626 20.170752 0.239983 -0.322066 -19.983733 0.034619 -0.026521 0.249106 -7.093264 -0.694389 -0.936280 0.000000 0.000000 0.000000 -4.793731 -12.353181 1.365827 2.816622 -15.088837 -1.191322 -8.885062 -1.848016 4.962692 14.928900 -2.038361 -9.451057 0.000000 0.000000 0.000000 0.000000 0.000000 0.000000 4.035185 -12.797410 -5.678185 4.977788 -0.846948 0.505832 3.507425 4.266706 4.133791 3.801861 1.547303 -2.755344 0.000000 0.000000 0.000000 0.000000 0.000000 0.000000 -8.776446 0.199622 -20.580262 11.657522 5.134474 2.572665 -7.263922 5.565620 -5.631920 0.000000 0.000000 0.000000 -8.542682 12.089375 -15.901999 10.509226 -9.257602 -1.823064 8.038818 -25.964727 -14.975905 0.000000 0.000000 0.000000
-32.048257 83.403154 331.328169 6.033794 0.338830 21.324420 0.231945 -0.394835 -21.151673 0.069572 -0.045704 0.254839 -6.907617 -0.972437 -0.965091 0.000000 0.000000 0.000000 -5.311349 -11.318538 1.110667 1.634586 -15.042647 -0.260920 -10.694130 -0.439156 5.913863 16.491978 -2.444795 -10.205367 0.000000 0.000000 0.000000 0.000000 0.000000 0.000000 3.251555 -12.493536 -5.426347 3.850534 0.541750 0.685043 1.426284 2.960536 4.871799 4.112020 0.843930 -2.512273 0.000000 0.000000 0.000000 0.000000 0.000000 0.000000 -9.044619 -0.007729 -21.788439 11.932819 4.964290 2.596371 -7.523839 5.811027 -5.601293 0.000000 0.000000 0.000000 -8.808064 11.076817 -17.435006 10.447851 -8.053756 -1.592682 9.653605 -30.261152 -15.317235 0.000000 0.000000 0.000000
